{"title":"Olympus Has Fallen 2013 BRRip 480p x264 AAC - VYTO [P2PDL]","uid":8621777,"size":429695910,"categoryP":"video","categoryS":"movies","magnet":"?xt=urn:btih:e69711cb27d8ef822c2a8fe64520b496095b0eed&amp;dn=Olympus+Has+Fallen+2013+BRRip+480p+x264+AAC+-+VYTO+%5BP2PDL%5D&amp;tr=udp%3A%2F%2Ftracker.openbittorrent.com%3A80&amp;tr=udp%3A%2F%2Fopen.demonii.com%3A1337&amp;tr=udp%3A%2F%2Ftracker.coppersurfer.tk%3A6969&amp;tr=udp%3A%2F%2Fexodus.desync.com%3A6969","seeders":0,"leechers":1,"uploader":"ValidusVyto","files":-1,"time":1372389162,"description":"_______ Visit us at our Semi Public Bittorrent Community ________\n  &lt;a href=&quot;\nhttp://p2pdl.com&quot; rel=&quot;nofollow&quot; target=&quot;_NEW&quot;&gt;\nhttp://p2pdl.com&lt;/a&gt;  _____________________________ &lt;a href=&quot; http://p2pdl.com&quot; rel=&quot;nofollow&quot; target=&quot;_NEW&quot;&gt; http://p2pdl.com&lt;/a&gt;\n\n\nOlympus Has Fallen 2013 BRRip 480p x264 AAC - VYTO\n\n\nGenre: Action | Thriller\nPlot: Disgraced former Presidential guard Mike Banning finds himself trapped inside\nthe White House in the wake of a terrorist attack; using his inside knowledge, Banning\nworks with national security to rescue the President from his kidnappers.  \nDirector: Antoine Fuqua\nStars: Gerard Butler, Aaron Eckhart, Morgan Freeman.\nRated: R for strong violence and language throughout.\n\n\nInfo: &lt;a href=&quot;\nhttp://www.imdb.com/title/tt2302755/&quot; rel=&quot;nofollow&quot; target=&quot;_NEW&quot;&gt;\nhttp://www.imdb.com/title/tt2302755/&lt;/a&gt;\n\nTrailer:\n\n\nFormat                         : MPEG-4\nFile size                      : 401 MiB\nDuration                       : 1h 59mn\nOverall bit rate               : 470 Kbps\nSource                         : 720p.BluRay.x264-SPARKS\n\nVideo\nID                             : 1\nFormat                         : AVC\nBit rate                       : 428 Kbps\nWidth                          : 720 pixels\nHeight                         : 304 pixels\nDisplay aspect ratio           : 2.35:1\nFrame rate mode                : Constant\nFrame rate                     : 24.000 fps\nStream size                    : 364 MiB (91%)\nWriting library                : x264 core 130 r2273\n\nAudio\nID                             : 2\nFormat                         : AAC\nBit rate mode                  : Variable\nBit rate                       : 40.0 Kbps\nChannel(s)                     : 2 channels\nChannel positions              : Front: L R\nSampling rate                  : 44.1 KHz\nStream size                    : 34.1 MiB (9%)\nLanguage                       : English\n\nSubtitle                       : Yes(English)\n &lt;a href=&quot;\nhttp://ultraimg.com/images/K3pfS.png&quot; rel=&quot;nofollow&quot; target=&quot;_NEW&quot;&gt;\nhttp://ultraimg.com/images/K3pfS.png&lt;/a&gt; &lt;a href=&quot;\nhttp://ultraimg.com/images/u1rGo.png&quot; rel=&quot;nofollow&quot; target=&quot;_NEW&quot;&gt;\nhttp://ultraimg.com/images/u1rGo.png&lt;/a&gt; &lt;a href=&quot;\nhttp://ultraimg.com/images/P0Nbj.png&quot; rel=&quot;nofollow&quot; target=&quot;_NEW&quot;&gt;\nhttp://ultraimg.com/images/P0Nbj.png&lt;/a&gt; &lt;a href=&quot;\nhttp://ultraimg.com/images/QnKoE.png&quot; rel=&quot;nofollow&quot; target=&quot;_NEW&quot;&gt;\nhttp://ultraimg.com/images/QnKoE.png&lt;/a&gt; &lt;a href=&quot;\nhttp://ultraimg.com/images/RgsTf.png&quot; rel=&quot;nofollow&quot; target=&quot;_NEW&quot;&gt;\nhttp://ultraimg.com/images/RgsTf.png&lt;/a&gt; &lt;a href=&quot;\nhttp://ultraimg.com/images/CF1K5.png&quot; rel=&quot;nofollow&quot; target=&quot;_NEW&quot;&gt;\nhttp://ultraimg.com/images/CF1K5.png&lt;/a&gt; &lt;a href=&quot;\nhttp://ultraimg.com/images/fTCbk.png&quot; rel=&quot;nofollow&quot; target=&quot;_NEW&quot;&gt;\nhttp://ultraimg.com/images/fTCbk.png&lt;/a&gt; &lt;a href=&quot;\nhttp://ultraimg.com/images/6XGH.png&quot; rel=&quot;nofollow&quot; target=&quot;_NEW&quot;&gt;\nhttp://ultraimg.com/images/6XGH.png&lt;/a&gt;\n\n\n----------------------------------------------------------------------------------------------------\n\n\nEncoded using revolutionary 10bit encoding, which enables us to provide you more crispier \nand sharper images at small sizes, just make sure you follow our instructions without a fault.\nRecommend to you to use latest version of VLC player. Install K-Lite Codec Pack or shark007 codecs\nin case of any kind of problem in playback (For non-VLC Media Player users). Alternatively, install\nCore AVC codecs, the fastest decoder that there is coupled with Community Center Codec Pack and play\non Windows Media Player Classic. Check sample to be sure.\nEnjoy!\n\nEncoder Notes:Looking For Early Access To Anything You Can Provide DVDScr, R5, DVDR, BluRay, Direct\nAudio, Music Releases and Seedboxes. We require dedicated servers, so as to do more \nand fast releases of movies.\nIf You Got anything to offer please contact us at &quot;&lt;a class=&quot;__cf_email__&quot; href=&quot;/cdn-cgi/l/email-protection&quot; data-cfemail=&quot;0a6965647e6b697e4a7a387a6e6624696567&quot;&gt;[email&amp;#160;protected]&lt;/a&gt;&lt;script cf-hash='f9e31' type=&quot;text/javascript&quot;&gt;\n/* &lt;![CDATA[ */!function(){try{var t=&quot;currentScript&quot;in document?document.currentScript:function(){for(var t=document.getElementsByTagName(&quot;script&quot;),e=t.length;e--;)if(t[e].getAttribute(&quot;cf-hash&quot;))return t[e]}();if(t&amp;&amp;t.previousSibling){var e,r,n,i,c=t.previousSibling,a=c.getAttribute(&quot;data-cfemail&quot;);if(a){for(e=&quot;&quot;,r=parseInt(a.substr(0,2),16),n=2;a.length-n;n+=2)i=parseInt(a.substr(n,2),16)^r,e+=String.fromCharCode(i);e=document.createTextNode(e),c.parentNode.replaceChild(e,c)}}}catch(u){}}();/* ]]&gt; */&lt;/script&gt;&quot;.\n\nFace book Fan Page:   &lt;a href=&quot;\nhttp://fbl.me/BC&quot; rel=&quot;nofollow&quot; target=&quot;_NEW&quot;&gt;\nhttp://fbl.me/BC&lt;/a&gt;","torrent":{"xt":"urn:btih:e69711cb27d8ef822c2a8fe64520b496095b0eed","amp;dn":"Olympus+Has+Fallen+2013+BRRip+480p+x264+AAC+-+VYTO+%5BP2PDL%5D","amp;tr":["udp%3A%2F%2Ftracker.openbittorrent.com%3A80","udp%3A%2F%2Fopen.demonii.com%3A1337","udp%3A%2F%2Ftracker.coppersurfer.tk%3A6969","udp%3A%2F%2Fexodus.desync.com%3A6969"],"infoHash":"e69711cb27d8ef822c2a8fe64520b496095b0eed","infoHashBuffer":{"type":"Buffer","data":[230,151,17,203,39,216,239,130,44,42,143,230,69,32,180,150,9,91,14,237]},"announce":[],"urlList":[]}}